<svg version="1.1" preserveAspectRatio="none" xmlns="http://www.w3.org/2000/svg" width="500" height="500" viewBox="0 0 500 500"><rect width="100%" height="100%" fill="#FFFFFF" fill-opacity="1"/><svg viewBox="38.2397 357.7284 589.5494 171.8" width="333" height="97.03919637607977" x="83.5px" y="201.4804px" xmlns="http://www.w3.org/2000/svg" xmlns:xlink="http://www.w3.org/1999/xlink" preserveAspectRatio="none"><defs></defs><style>.background {fill:#FFFFFF;fill-opacity:1;}.companyName {fill:#0C0C0C;fill-opacity:1;}.icon3 {fill:#6F5CF3;fill-opacity:1;}.icon3-str {stroke:#6F5CF3;stroke-opacity:1;}.shape {fill:#F55649;fill-opacity:1;}.text {fill:#0C0C0C;fill-opacity:1;}.text-str {stroke:#0C0C0C;stroke-opacity:1;}</style><g opacity="1" transform="rotate(0 171.2395 357.7284)">
<svg width="456.5496" height="130" x="171.2395" y="357.7284" version="1.1" preserveAspectRatio="none" viewBox="0 0 456.5496 130">
  <defs><rect x="0" y="0" width="456.5496" height="130" rx="0px" ry="0px" id="id-B7crM0kCi1700578017880"></rect></defs><use class="companyName text-str" style="stroke-width:0;" xlink:href="#id-B7crM0kCi1700578017880"></use>
</svg>
</g><g opacity="1" transform="rotate(0 249.7441 505.7284)">
<svg width="166.5406" height="23.8" x="249.7441" y="505.7284" version="1.1" preserveAspectRatio="none" viewBox="4.2 -28.32 200.40000000000003 28.64">
  <g transform="matrix(1 0 0 1 0 0)" class="text"><path id="id-6izo4zJp7" d="M34 0L30.16 0L30.12-20.40L20-3.40L18.16-3.40L8.04-20.28L8.04 0L4.20 0L4.20-28L7.48-28L19.16-8.32L30.68-28L33.96-28L34 0Z M52.56 0.32Q49.40 0.32 46.46-0.66Q43.52-1.64 41.84-3.20L41.84-3.20L43.32-6.32Q44.92-4.88 47.42-3.98Q49.92-3.08 52.56-3.08L52.56-3.08Q56.04-3.08 57.76-4.26Q59.48-5.44 59.48-7.40L59.48-7.40Q59.48-8.84 58.54-9.74Q57.60-10.64 56.22-11.12Q54.84-11.60 52.32-12.20L52.32-12.20Q49.16-12.96 47.22-13.72Q45.28-14.48 43.90-16.06Q42.52-17.64 42.52-20.32L42.52-20.32Q42.52-22.56 43.70-24.36Q44.88-26.16 47.28-27.24Q49.68-28.32 53.24-28.32L53.24-28.32Q55.72-28.32 58.12-27.68Q60.52-27.04 62.24-25.84L62.24-25.84L60.92-22.64Q59.16-23.76 57.16-24.34Q55.16-24.92 53.24-24.92L53.24-24.92Q49.84-24.92 48.14-23.68Q46.44-22.44 46.44-20.48L46.44-20.48Q46.44-19.04 47.40-18.14Q48.36-17.24 49.78-16.74Q51.20-16.24 53.64-15.68L53.64-15.68Q56.80-14.92 58.72-14.16Q60.64-13.40 62.02-11.84Q63.40-10.28 63.40-7.64L63.40-7.64Q63.40-5.44 62.20-3.62Q61-1.80 58.56-0.74Q56.12 0.32 52.56 0.32L52.56 0.32Z M103.84 0L93.12-12.44L88.00-7.24L88.00 0L84.00 0L84.00-28L88.00-28L88.00-12.36L103.20-28L107.76-28L95.80-15.40L108.52 0L103.84 0Z M134.84-28L138.84-28L138.84 0L134.84 0L134.84-12.48L118.76-12.48L118.76 0L114.76 0L114.76-28L118.76-28L118.76-15.96L134.84-15.96L134.84-28Z M170.16 0L167.08-7L152.20-7L149.12 0L145.00 0L157.68-28L161.64-28L174.36 0L170.16 0ZM153.60-10.20L165.68-10.20L159.64-23.92L153.60-10.20Z M200.60-28L204.60-28L204.60 0L201.32 0L184.52-20.88L184.52 0L180.52 0L180.52-28L183.80-28L200.60-7.12L200.60-28Z"/></g>
</svg>
</g><g opacity="1" transform="rotate(0 201.2395 387.7284)">
<svg width="396.5496" height="70" x="201.2395" y="387.7284" version="1.1" preserveAspectRatio="none" viewBox="2.4805 -30.9375 177.6953 31.3672">
  <g transform="matrix(1 0 0 1 0 0)" class="background"><path id="id-D6z1nYkh5" d="M2.48-15.45L2.48-15.45Q2.48-18.71 3.71-21.53Q4.94-24.36 7.28-26.44Q9.61-28.52 12.98-29.71Q16.35-30.90 20.61-30.90L20.61-30.90Q24.34-30.90 27.45-30.15Q30.57-29.39 33.24-27.85L33.24-27.85L30.39-23.16Q29.59-23.69 28.54-24.10Q27.50-24.51 26.32-24.79Q25.14-25.08 23.88-25.23Q22.62-25.39 21.39-25.39L21.39-25.39Q18.42-25.39 16.09-24.66Q13.77-23.93 12.18-22.61Q10.59-21.29 9.76-19.46Q8.93-17.64 8.93-15.45L8.93-15.45Q8.93-13.18 9.79-11.29Q10.64-9.39 12.28-8.02Q13.91-6.64 16.26-5.87Q18.61-5.10 21.58-5.10L21.58-5.10Q22.93-5.10 24.26-5.29Q25.59-5.49 26.83-5.83Q28.07-6.17 29.22-6.65Q30.37-7.13 31.37-7.70L31.37-7.70L34.22-3.01Q31.72-1.41 28.44-0.50Q25.16 0.41 21.46 0.41L21.46 0.41Q16.76 0.41 13.20-0.81Q9.65-2.03 7.27-4.17Q4.88-6.31 3.68-9.21Q2.48-12.11 2.48-15.45Z M39.24-15.35L39.24-15.35Q39.24-18.81 40.51-21.68Q41.78-24.55 44.07-26.61Q46.37-28.67 49.58-29.80Q52.79-30.94 56.70-30.94L56.70-30.94Q60.59-30.94 63.81-29.80Q67.03-28.67 69.33-26.61Q71.62-24.55 72.89-21.68Q74.16-18.81 74.16-15.35L74.16-15.35Q74.16-11.88 72.89-8.97Q71.62-6.07 69.33-3.98Q67.03-1.89 63.81-0.73Q60.59 0.43 56.70 0.43L56.70 0.43Q52.79 0.43 49.58-0.73Q46.37-1.89 44.07-3.98Q41.78-6.07 40.51-8.97Q39.24-11.88 39.24-15.35ZM45.43-15.35L45.43-15.35Q45.43-12.99 46.28-11.09Q47.13-9.20 48.64-7.86Q50.16-6.52 52.22-5.80Q54.28-5.08 56.70-5.08L56.70-5.08Q59.12-5.08 61.18-5.80Q63.24-6.52 64.75-7.86Q66.25-9.20 67.11-11.09Q67.97-12.99 67.97-15.35L67.97-15.35Q67.97-17.71 67.11-19.59Q66.25-21.46 64.75-22.76Q63.24-24.06 61.18-24.75Q59.12-25.43 56.70-25.43L56.70-25.43Q54.28-25.43 52.22-24.75Q50.16-24.06 48.64-22.76Q47.13-21.46 46.28-19.59Q45.43-17.71 45.43-15.35Z M81.04 0L81.04-30.53L92.23-30.53Q97.13-30.53 100.74-29.47Q104.36-28.42 106.73-26.46Q109.10-24.49 110.26-21.69Q111.43-18.89 111.43-15.39L111.43-15.39Q111.43-12.07 110.27-9.25Q109.12-6.43 106.76-4.37Q104.39-2.30 100.78-1.14Q97.17 0.02 92.27 0.02L92.27 0.02L81.04 0ZM87.23-5.35L93.75-5.35Q96.52-5.35 98.61-6.06Q100.70-6.78 102.10-8.09Q103.50-9.39 104.20-11.25Q104.90-13.11 104.90-15.39L104.90-15.39Q104.90-17.64 104.20-19.44Q103.50-21.25 102.10-22.51Q100.70-23.77 98.61-24.45Q96.52-25.14 93.75-25.14L93.75-25.14L87.23-25.14L87.23-5.35Z M117.64 0L117.64-30.53L143.63-30.53L143.63-25.10L123.83-25.10L123.83-19.00L141.37-19.00L141.37-13.91L123.83-13.91L123.83-5.41L144.04-5.41L144.04 0L117.64 0Z M150.92 0L150.92-30.53L166.45-30.53Q169.96-30.53 172.54-29.79Q175.12-29.06 176.82-27.68Q178.52-26.29 179.35-24.30Q180.18-22.30 180.18-19.79L180.18-19.79Q180.18-18.09 179.77-16.55Q179.36-15.02 178.51-13.73Q177.66-12.44 176.37-11.44Q175.08-10.43 173.34-9.77L173.34-9.77L179.98 0L172.40 0L166.66-8.67L166.48-8.67L157.11-8.69L157.11 0L150.92 0ZM157.11-14.04L166.60-14.04Q168.36-14.04 169.68-14.45Q171.00-14.86 171.88-15.61Q172.77-16.35 173.21-17.41Q173.65-18.48 173.65-19.79L173.65-19.79Q173.65-22.34 171.89-23.74Q170.14-25.14 166.60-25.14L166.60-25.14L157.11-25.14L157.11-14.04Z"/></g>
</svg>
</g><g opacity="1" transform="rotate(0 38.2397 357.7284)">
<svg width="129.9998" height="130" x="38.2397" y="357.7284" version="1.1" preserveAspectRatio="none" viewBox="0 0 129.9998 130">
  <defs><rect x="0" y="0" width="129.9998" height="130" rx="0px" ry="0px" id="id-tBXipXk0b1700578017881"></rect></defs><use class="companyName text-str" style="stroke-width:0;" xlink:href="#id-tBXipXk0b1700578017881"></use>
</svg>
</g><g opacity="1" transform="rotate(0 62.9302 367.7284)">
<svg width="80.6189" height="110" x="62.9302" y="367.7284" version="1.1" preserveAspectRatio="none" viewBox="9.035999298095703 5.001988887786865 65.96000671386719 89.99901580810547">
  <g transform="matrix(1 0 0 1 0 0)" class="icon3"><g><path d="M18.813,90.982H65.22h0.002c1.73,0,3.135-1.388,3.135-3.099l6.325-28.882c0-1.71-1.403-3.097-3.134-3.097   h-5.479h-0.401H46.522h-3.08h-3.324h-2.971H18.364h-0.262h-5.617c-1.731,0-3.135,1.386-3.135,3.097l6.329,28.882   C15.68,89.595,17.081,90.982,18.813,90.982z M40.608,72.808c0.299-0.461,0.817-0.768,1.409-0.768c0.115,0,0.229,0.013,0.338,0.033   c0.206,0.043,0.397,0.126,0.569,0.236c0.012,0.006,0.021,0.011,0.031,0.018c0.057,0.039,0.105,0.084,0.157,0.13   c0.03,0.024,0.064,0.049,0.091,0.076c0.029,0.028,0.051,0.062,0.078,0.093c0.042,0.051,0.089,0.1,0.128,0.156   c0.005,0.008,0.009,0.016,0.015,0.025c0.002,0.002,0.003,0.005,0.004,0.007c0.11,0.172,0.191,0.362,0.234,0.568   c0.023,0.11,0.034,0.223,0.035,0.34c0,0.929-0.752,1.682-1.681,1.682c-0.93,0-1.683-0.753-1.683-1.681   C40.335,73.385,40.437,73.071,40.608,72.808z"></path><path d="M42.018,75.404c0.929,0,1.681-0.753,1.681-1.682c-0.001-0.117-0.012-0.229-0.035-0.34   c-0.043-0.206-0.124-0.396-0.234-0.568c-0.001-0.002-0.002-0.005-0.004-0.007c-0.006-0.01-0.01-0.018-0.015-0.025   c-0.039-0.057-0.086-0.105-0.128-0.156c-0.027-0.031-0.049-0.064-0.078-0.093c-0.026-0.027-0.061-0.052-0.091-0.076   c-0.052-0.046-0.101-0.091-0.157-0.13c-0.01-0.007-0.02-0.012-0.031-0.018c-0.172-0.11-0.363-0.193-0.569-0.236   c-0.108-0.021-0.223-0.033-0.338-0.033c-0.592,0-1.11,0.307-1.409,0.768c-0.172,0.264-0.273,0.577-0.273,0.916   C40.335,74.651,41.088,75.404,42.018,75.404z"></path><path d="M68.578,92.293H15.456c-0.748,0-1.353,0.606-1.353,1.354c0,0.746,0.605,1.354,1.353,1.354h53.123   c0.745,0,1.353-0.605,1.353-1.354C69.93,92.899,69.324,92.293,68.578,92.293z"></path><path d="M18.526,91.493h46.979c1.747,0,3.164-1.416,3.164-3.165l6.327-29.771c0.001-1.748-1.416-3.165-3.163-3.165h-3.202   c-0.231-2.073-1.163-6.314-4.489-11.234c0,0-1.165-1.591-3.922-2.651c0,0-5.88-1.785-8.669-3.735c0,0.056-0.001,0.114-0.003,0.17   c-0.013,0.767-0.099,1.705-0.218,2.679c-0.353,2.892-1.004,6.104-1.004,6.104c-0.863-1.422-1.64-2.36-2.325-2.963   c-0.942-0.83-1.711-1.022-2.287-0.962c-0.684,0.07-1.099,0.496-1.218,0.636c3.767-4.597,5.111-8.524,5.229-8.886   c-0.024-0.287-0.032-0.591-0.014-0.918c0,0-0.023-0.405-0.064-0.361c1.079-1.385,1.958-2.541,2.54-4.153   c0.991-0.997,1.5-3.411,1.5-3.411c0.827-2.318,0.314-3.217-0.076-3.552c0.601-1.941,1.9-7.413-1.195-10.897   c0,0-1.909-2.625-6.681-3.579c0,0-1.835-0.742-2.569-2.677c0,0-1.644,0.213-1.644,1.644l-0.795-0.318l-0.735,0.52l-0.854-0.52   c0,0-0.314-0.095-1.034,0.159c0,0-5.487,2.385-7.077,7.315c0,0-0.882,2.092,0.194,8.185c-0.261,0.103-1.41,0.739-0.348,3.719   c0,0,0.461,2.187,1.36,3.256c0.505,1.567,1.279,3.081,2.227,4.417c-0.005-0.005-0.01-0.01-0.015-0.015c0,0,0.12,0.586,0.01,1.406   c0.222,0.602,2.002,5.25,5.136,8.764c-0.165-0.167-0.509-0.447-1.018-0.533c-0.55-0.095-1.292,0.036-2.211,0.777   c-0.732,0.59-1.576,1.568-2.522,3.131c0,0-0.779-3.836-1.096-6.898c-0.075-0.734-0.124-1.424-0.13-2.006   c0-0.115,0-0.226,0.002-0.332c-2.729,1.988-8.804,3.832-8.804,3.832c-2.757,1.06-3.922,2.65-3.922,2.65   c-3.326,4.921-4.258,9.163-4.49,11.236H12.2c-1.749,0-3.164,1.417-3.164,3.165l6.325,29.773   C15.361,90.077,16.777,91.493,18.526,91.493z M12.485,55.905h5.617h0.262h18.783h2.971h3.324h3.08h19.146h0.401h5.479   c1.73,0,3.134,1.387,3.134,3.097l-6.325,28.882c0,1.711-1.404,3.099-3.135,3.099H65.22H18.813c-1.731,0-3.133-1.388-3.133-3.099   L9.351,59.002C9.351,57.291,10.754,55.905,12.485,55.905z"></path></g></g>
</svg>
</g></svg></svg>